<svg xmlns="http://www.w3.org/2000/svg" width="161.688" height="136.867" viewBox="0 0 161.688 136.867">
  <g id="Group_6" data-name="Group 6" transform="translate(-121.312 -26.133)">
    <ellipse id="Ellipse_3" data-name="Ellipse 3" cx="57" cy="53" rx="57" ry="53" transform="translate(146 57)" fill="#3b308b" opacity="0.22"/>
    <rect id="Rectangle_4" data-name="Rectangle 4" width="19" height="31" rx="9.5" transform="translate(127 95)" fill="#7fadf2"/>
    <rect id="Rectangle_5" data-name="Rectangle 5" width="19" height="31" rx="9.5" transform="translate(260 95)" fill="#7fadf2"/>
    <path id="Path_1" data-name="Path 1" d="M10.767,86.642c-18.336-10.583,7.555-39.773,26.1-60.4S70.915,4.133,84.941,4.133c14.723,0,29.121,1.495,47.294,22.122s36.948,45.467,25.4,60.387" transform="translate(119.317 24.5)" fill="none" stroke="#7fadf2" stroke-width="5"/>
    <rect id="Rectangle_21" data-name="Rectangle 21" width="11" height="27" rx="5.5" transform="translate(177 103)" fill="#7fadf2" opacity="0.5"/>
    <rect id="Rectangle_22" data-name="Rectangle 22" width="11" height="35" rx="5.5" transform="translate(190 95)" fill="#7fadf2" opacity="0.5"/>
    <rect id="Rectangle_23" data-name="Rectangle 23" width="11" height="19" rx="5.5" transform="translate(203 111)" fill="#7fadf2" opacity="0.5"/>
    <rect id="Rectangle_24" data-name="Rectangle 24" width="11" height="40" rx="5.5" transform="translate(216 90)" fill="#7fadf2" opacity="0.5"/>
  </g>
</svg>
